<svg width="12" height="12" viewBox="0 0 12 12" fill="none" xmlns="http://www.w3.org/2000/svg">
<path fill-rule="evenodd" clip-rule="evenodd" d="M8.96697 3.86693C9.21104 3.62285 9.21104 3.22712 8.96697 2.98305C8.72289 2.73897 8.32716 2.73897 8.08308 2.98305L6.02502 5.0411L3.96697 2.98305C3.72289 2.73897 3.32716 2.73897 3.08308 2.98305C2.839 3.22712 2.839 3.62285 3.08308 3.86693L5.14114 5.92499L3.08308 7.98305C2.839 8.22712 2.839 8.62285 3.08308 8.86693C3.32716 9.11101 3.72289 9.11101 3.96697 8.86693L6.02502 6.80887L8.08308 8.86693C8.32716 9.11101 8.72289 9.11101 8.96697 8.86693C9.21104 8.62285 9.21104 8.22712 8.96697 7.98305L6.90891 5.92499L8.96697 3.86693Z" fill="#222222"/>
</svg>
