<svg width="28" height="28" viewBox="0 0 28 28" fill="none" xmlns="http://www.w3.org/2000/svg">
<path d="M1.75 1H25C26.6569 1 28 2.34315 28 4V24C28 25.6569 26.6569 27 25 27H1.75V1Z" fill="#222222" fill-opacity="0.03"/>
<path d="M1.38513 1.37202L1.37499 26.6176" stroke="#222222" stroke-opacity="0.18" stroke-linecap="square"/>
<path fill-rule="evenodd" clip-rule="evenodd" d="M10 11.3439H12V12.7971H10V11.3439ZM10 14.2503H12V15.7035H10V14.2503ZM12 17.1566H10V18.6098H12V17.1566ZM14 17.1566H16V18.6098H14V17.1566ZM16 14.2503H14V15.7035H16V14.2503ZM14 11.3439H16V12.7971H14V11.3439ZM20 17.1566H18V18.6098H20V17.1566ZM18 14.2503H20V15.7035H18V14.2503ZM20 11.3439H18V12.7971H20V11.3439Z" fill="#222222" fill-opacity="0.55"/>
<path fill-rule="evenodd" clip-rule="evenodd" d="M11.5 6.5C11.5 6.22386 11.2761 6 11 6C10.7239 6 10.5 6.22386 10.5 6.5V7.46881H9C7.89543 7.46881 7 8.36424 7 9.46881V20.0005C7 21.1051 7.89543 22.0005 9 22.0005H21C22.1046 22.0005 23 21.1051 23 20.0005V9.46881C23 8.36424 22.1046 7.46881 21 7.46881H19.5V6.5C19.5 6.22386 19.2761 6 19 6C18.7239 6 18.5 6.22386 18.5 6.5V7.46881H15.5V6.5C15.5 6.22386 15.2761 6 15 6C14.7239 6 14.5 6.22386 14.5 6.5V7.46881H11.5V6.5ZM18.5 8.46881H15.5V9.40634C15.5 9.68248 15.2761 9.90634 15 9.90634C14.7239 9.90634 14.5 9.68248 14.5 9.40634V8.46881H11.5V9.40634C11.5 9.68248 11.2761 9.90634 11 9.90634C10.7239 9.90634 10.5 9.68248 10.5 9.40634V8.46881H9C8.44772 8.46881 8 8.91652 8 9.46881V20.0005C8 20.5528 8.44771 21.0005 9 21.0005H21C21.5523 21.0005 22 20.5528 22 20.0005V9.46881C22 8.91652 21.5523 8.46881 21 8.46881H19.5V9.40634C19.5 9.68248 19.2761 9.90634 19 9.90634C18.7239 9.90634 18.5 9.68248 18.5 9.40634V8.46881Z" fill="#222222" fill-opacity="0.55"/>
</svg>
