<svg width="27" height="26" viewBox="0 0 27 26" fill="none" xmlns="http://www.w3.org/2000/svg">
<path d="M0 3C0 1.34315 1.34315 0 3 0H27V26H3C1.34315 26 0 24.6569 0 23V3Z" fill="#222222" fill-opacity="0.03"/>
<path fill-rule="evenodd" clip-rule="evenodd" d="M27 0.00031289L26.9863 26L26 25.9997L26.0137 0L27 0.00031289Z" fill="#222222" fill-opacity="0.18"/>
<path d="M13.0352 18.8135V17.3779C12.5111 17.3688 12.0098 17.3232 11.5312 17.2412C11.0573 17.1592 10.6699 17.0521 10.3691 16.9199V15.8125C10.6836 15.9583 11.0869 16.0859 11.5791 16.1953C12.0713 16.3047 12.5566 16.3639 13.0352 16.373V13.3652C12.4336 13.1966 11.9346 13.0052 11.5381 12.791C11.1462 12.5723 10.8522 12.3057 10.6562 11.9912C10.4603 11.6768 10.3623 11.2962 10.3623 10.8496C10.3623 10.3848 10.4717 9.98828 10.6904 9.66016C10.9137 9.32747 11.2259 9.06771 11.627 8.88086C12.028 8.69401 12.4974 8.58691 13.0352 8.55957V7.37695H13.8691V8.5459C14.3568 8.55957 14.8011 8.61426 15.2021 8.70996C15.6032 8.80111 15.9746 8.9196 16.3164 9.06543L15.9609 10.0156C15.651 9.89258 15.3161 9.78776 14.9561 9.70117C14.596 9.61458 14.2337 9.55534 13.8691 9.52344V12.5107C14.4798 12.6885 14.9902 12.8776 15.4004 13.0781C15.8151 13.2786 16.1273 13.527 16.3369 13.8232C16.5465 14.1195 16.6514 14.5023 16.6514 14.9717C16.6514 15.637 16.4076 16.1748 15.9199 16.585C15.4323 16.9906 14.7487 17.2367 13.8691 17.3232V18.8135H13.0352ZM13.8691 16.3115C14.4297 16.2568 14.8467 16.1224 15.1201 15.9082C15.3981 15.6895 15.5371 15.4023 15.5371 15.0469C15.5371 14.7917 15.4824 14.582 15.373 14.418C15.2682 14.2539 15.0951 14.1126 14.8535 13.9941C14.612 13.8711 14.2839 13.7549 13.8691 13.6455V16.3115ZM13.0352 12.2236V9.55078C12.6934 9.57357 12.4062 9.63737 12.1738 9.74219C11.9414 9.84701 11.766 9.98372 11.6475 10.1523C11.5335 10.321 11.4766 10.5215 11.4766 10.7539C11.4766 11.0228 11.5267 11.2484 11.627 11.4307C11.7318 11.6084 11.8981 11.7611 12.126 11.8887C12.3584 12.0117 12.6615 12.1234 13.0352 12.2236Z" fill="#222222" fill-opacity="0.55"/>
</svg>
