<svg width="28" height="28" viewBox="0 0 28 28" fill="none" xmlns="http://www.w3.org/2000/svg">
<path d="M0 4C0 2.34315 1.34315 1 3 1H27V27H3C1.34315 27 0 25.6569 0 24V4Z" fill="#222222" fill-opacity="0.03"/>
<path d="M26.6351 1.37202L26.625 26.6176" stroke="#222222" stroke-opacity="0.18" stroke-linecap="square"/>
<path d="M13.0352 19.8135V18.3779C12.5111 18.3688 12.0098 18.3232 11.5312 18.2412C11.0573 18.1592 10.6699 18.0521 10.3691 17.9199V16.8125C10.6836 16.9583 11.0869 17.0859 11.5791 17.1953C12.0713 17.3047 12.5566 17.3639 13.0352 17.373V14.3652C12.4336 14.1966 11.9346 14.0052 11.5381 13.791C11.1462 13.5723 10.8522 13.3057 10.6562 12.9912C10.4603 12.6768 10.3623 12.2962 10.3623 11.8496C10.3623 11.3848 10.4717 10.9883 10.6904 10.6602C10.9137 10.3275 11.2259 10.0677 11.627 9.88086C12.028 9.69401 12.4974 9.58691 13.0352 9.55957V8.37695H13.8691V9.5459C14.3568 9.55957 14.8011 9.61426 15.2021 9.70996C15.6032 9.80111 15.9746 9.9196 16.3164 10.0654L15.9609 11.0156C15.651 10.8926 15.3161 10.7878 14.9561 10.7012C14.596 10.6146 14.2337 10.5553 13.8691 10.5234V13.5107C14.4798 13.6885 14.9902 13.8776 15.4004 14.0781C15.8151 14.2786 16.1273 14.527 16.3369 14.8232C16.5465 15.1195 16.6514 15.5023 16.6514 15.9717C16.6514 16.637 16.4076 17.1748 15.9199 17.585C15.4323 17.9906 14.7487 18.2367 13.8691 18.3232V19.8135H13.0352ZM13.8691 17.3115C14.4297 17.2568 14.8467 17.1224 15.1201 16.9082C15.3981 16.6895 15.5371 16.4023 15.5371 16.0469C15.5371 15.7917 15.4824 15.582 15.373 15.418C15.2682 15.2539 15.0951 15.1126 14.8535 14.9941C14.612 14.8711 14.2839 14.7549 13.8691 14.6455V17.3115ZM13.0352 13.2236V10.5508C12.6934 10.5736 12.4062 10.6374 12.1738 10.7422C11.9414 10.847 11.766 10.9837 11.6475 11.1523C11.5335 11.321 11.4766 11.5215 11.4766 11.7539C11.4766 12.0228 11.5267 12.2484 11.627 12.4307C11.7318 12.6084 11.8981 12.7611 12.126 12.8887C12.3584 13.0117 12.6615 13.1234 13.0352 13.2236Z" fill="#222222" fill-opacity="0.55"/>
</svg>
