<svg width="27" height="26" viewBox="0 0 27 26" fill="none" xmlns="http://www.w3.org/2000/svg">
<path d="M0.75 0H24C25.6569 0 27 1.34315 27 3V23C27 24.6569 25.6569 26 24 26H0.75V0Z" fill="#222222" fill-opacity="0.03"/>
<path fill-rule="evenodd" clip-rule="evenodd" d="M1 0.00031289L0.986268 26L0 25.9997L0.0137316 0L1 0.00031289Z" fill="#222222" fill-opacity="0.18"/>
<path fill-rule="evenodd" clip-rule="evenodd" d="M9 10.3439H11V11.7971H9V10.3439ZM9 13.2503H11V14.7035H9V13.2503ZM11 16.1566H9V17.6098H11V16.1566ZM13 16.1566H15V17.6098H13V16.1566ZM15 13.2503H13V14.7035H15V13.2503ZM13 10.3439H15V11.7971H13V10.3439ZM19 16.1566H17V17.6098H19V16.1566ZM17 13.2503H19V14.7035H17V13.2503ZM19 10.3439H17V11.7971H19V10.3439Z" fill="#222222" fill-opacity="0.55"/>
<path fill-rule="evenodd" clip-rule="evenodd" d="M10.5 5.5C10.5 5.22386 10.2761 5 10 5C9.72386 5 9.5 5.22386 9.5 5.5V6.46881H8C6.89543 6.46881 6 7.36424 6 8.46881V19.0005C6 20.1051 6.89543 21.0005 8 21.0005H20C21.1046 21.0005 22 20.1051 22 19.0005V8.46881C22 7.36424 21.1046 6.46881 20 6.46881H18.5V5.5C18.5 5.22386 18.2761 5 18 5C17.7239 5 17.5 5.22386 17.5 5.5V6.46881H14.5V5.5C14.5 5.22386 14.2761 5 14 5C13.7239 5 13.5 5.22386 13.5 5.5V6.46881H10.5V5.5ZM17.5 7.46881H14.5V8.40634C14.5 8.68248 14.2761 8.90634 14 8.90634C13.7239 8.90634 13.5 8.68248 13.5 8.40634V7.46881H10.5V8.40634C10.5 8.68248 10.2761 8.90634 10 8.90634C9.72386 8.90634 9.5 8.68248 9.5 8.40634V7.46881H8C7.44772 7.46881 7 7.91652 7 8.46881V19.0005C7 19.5528 7.44771 20.0005 8 20.0005H20C20.5523 20.0005 21 19.5528 21 19.0005V8.46881C21 7.91652 20.5523 7.46881 20 7.46881H18.5V8.40634C18.5 8.68248 18.2761 8.90634 18 8.90634C17.7239 8.90634 17.5 8.68248 17.5 8.40634V7.46881Z" fill="#222222" fill-opacity="0.55"/>
</svg>
