<svg width="27" height="26" viewBox="0 0 27 26" fill="none" xmlns="http://www.w3.org/2000/svg">
<path d="M0.75 0H24C25.6569 0 27 1.34315 27 3V23C27 24.6569 25.6569 26 24 26H0.75V0Z" fill="#222222" fill-opacity="0.03"/>
<path fill-rule="evenodd" clip-rule="evenodd" d="M1 0.00031289L0.986268 26L0 25.9997L0.0137316 0L1 0.00031289Z" fill="#222222" fill-opacity="0.18"/>
<path fill-rule="evenodd" clip-rule="evenodd" d="M11.756 18.036L17.385 8.429L16.514 8L10.872 17.607L11.756 18.036ZM11.301 12.862C11.6217 12.862 11.9207 12.8013 12.198 12.68C12.4753 12.5587 12.718 12.394 12.926 12.186C13.134 11.978 13.2987 11.7353 13.42 11.458C13.5413 11.1807 13.602 10.8817 13.602 10.561C13.602 10.2403 13.5413 9.94133 13.42 9.664C13.2987 9.38667 13.134 9.144 12.926 8.936C12.718 8.728 12.4753 8.56333 12.198 8.442C11.9207 8.32067 11.6217 8.26 11.301 8.26C10.9803 8.26 10.6813 8.32067 10.404 8.442C10.1267 8.56333 9.884 8.728 9.676 8.936C9.468 9.144 9.30333 9.38667 9.182 9.664C9.06067 9.94133 9 10.2403 9 10.561C9 10.8817 9.06067 11.1807 9.182 11.458C9.30333 11.7353 9.468 11.978 9.676 12.186C9.884 12.394 10.1267 12.5587 10.404 12.68C10.6813 12.8013 10.9803 12.862 11.301 12.862ZM10.82 11.6855C10.9673 11.7505 11.1277 11.783 11.301 11.783C11.4657 11.783 11.6238 11.7505 11.7755 11.6855C11.9272 11.6205 12.0572 11.5338 12.1655 11.4255C12.2738 11.3172 12.3605 11.1893 12.4255 11.042C12.4905 10.8947 12.523 10.7343 12.523 10.561C12.523 10.3963 12.4905 10.2382 12.4255 10.0865C12.3605 9.93483 12.2738 9.80483 12.1655 9.6965C12.0572 9.58817 11.9272 9.5015 11.7755 9.4365C11.6238 9.3715 11.4657 9.339 11.301 9.339C11.1277 9.339 10.9673 9.3715 10.82 9.4365C10.6727 9.5015 10.5448 9.58817 10.4365 9.6965C10.3282 9.80483 10.2415 9.93483 10.1765 10.0865C10.1115 10.2382 10.079 10.3963 10.079 10.561C10.079 10.7343 10.1115 10.8947 10.1765 11.042C10.2415 11.1893 10.3282 11.3172 10.4365 11.4255C10.5448 11.5338 10.6727 11.6205 10.82 11.6855ZM16.943 17.776C17.2637 17.776 17.5627 17.7153 17.84 17.594C18.1173 17.4727 18.36 17.308 18.568 17.1C18.776 16.892 18.9407 16.6493 19.062 16.372C19.1833 16.0947 19.244 15.7957 19.244 15.475C19.244 15.1543 19.1833 14.8553 19.062 14.578C18.9407 14.3007 18.776 14.058 18.568 13.85C18.36 13.642 18.1173 13.4773 17.84 13.356C17.5627 13.2347 17.2637 13.174 16.943 13.174C16.6223 13.174 16.3233 13.2347 16.046 13.356C15.7687 13.4773 15.526 13.642 15.318 13.85C15.11 14.058 14.9453 14.3007 14.824 14.578C14.7027 14.8553 14.642 15.1543 14.642 15.475C14.642 15.7957 14.7027 16.0947 14.824 16.372C14.9453 16.6493 15.11 16.892 15.318 17.1C15.526 17.308 15.7687 17.4727 16.046 17.594C16.3233 17.7153 16.6223 17.776 16.943 17.776ZM16.462 16.5995C16.6093 16.6645 16.7697 16.697 16.943 16.697C17.1077 16.697 17.2658 16.6645 17.4175 16.5995C17.5692 16.5345 17.6992 16.4478 17.8075 16.3395C17.9158 16.2312 18.0025 16.1033 18.0675 15.956C18.1325 15.8087 18.165 15.6483 18.165 15.475C18.165 15.3103 18.1325 15.1522 18.0675 15.0005C18.0025 14.8488 17.9158 14.7188 17.8075 14.6105C17.6992 14.5022 17.5692 14.4155 17.4175 14.3505C17.2658 14.2855 17.1077 14.253 16.943 14.253C16.7697 14.253 16.6093 14.2855 16.462 14.3505C16.3147 14.4155 16.1868 14.5022 16.0785 14.6105C15.9702 14.7188 15.8835 14.8488 15.8185 15.0005C15.7535 15.1522 15.721 15.3103 15.721 15.475C15.721 15.6483 15.7535 15.8087 15.8185 15.956C15.8835 16.1033 15.9702 16.2312 16.0785 16.3395C16.1868 16.4478 16.3147 16.5345 16.462 16.5995Z" fill="#222222" fill-opacity="0.55"/>
</svg>
