<svg width="28" height="28" viewBox="0 0 28 28" fill="none" xmlns="http://www.w3.org/2000/svg">
<path d="M1.75 1H25C26.6569 1 28 2.34315 28 4V24C28 25.6569 26.6569 27 25 27H1.75V1Z" fill="#222222" fill-opacity="0.03"/>
<path d="M1.38513 1.37202L1.37499 26.6176" stroke="#222222" stroke-opacity="0.18" stroke-linecap="square"/>
<path fill-rule="evenodd" clip-rule="evenodd" d="M12.756 19.036L18.385 9.429L17.514 9L11.872 18.607L12.756 19.036ZM12.301 13.862C12.6217 13.862 12.9207 13.8013 13.198 13.68C13.4753 13.5587 13.718 13.394 13.926 13.186C14.134 12.978 14.2987 12.7353 14.42 12.458C14.5413 12.1807 14.602 11.8817 14.602 11.561C14.602 11.2403 14.5413 10.9413 14.42 10.664C14.2987 10.3867 14.134 10.144 13.926 9.936C13.718 9.728 13.4753 9.56333 13.198 9.442C12.9207 9.32067 12.6217 9.26 12.301 9.26C11.9803 9.26 11.6813 9.32067 11.404 9.442C11.1267 9.56333 10.884 9.728 10.676 9.936C10.468 10.144 10.3033 10.3867 10.182 10.664C10.0607 10.9413 10 11.2403 10 11.561C10 11.8817 10.0607 12.1807 10.182 12.458C10.3033 12.7353 10.468 12.978 10.676 13.186C10.884 13.394 11.1267 13.5587 11.404 13.68C11.6813 13.8013 11.9803 13.862 12.301 13.862ZM11.82 12.6855C11.9673 12.7505 12.1277 12.783 12.301 12.783C12.4657 12.783 12.6238 12.7505 12.7755 12.6855C12.9272 12.6205 13.0572 12.5338 13.1655 12.4255C13.2738 12.3172 13.3605 12.1893 13.4255 12.042C13.4905 11.8947 13.523 11.7343 13.523 11.561C13.523 11.3963 13.4905 11.2382 13.4255 11.0865C13.3605 10.9348 13.2738 10.8048 13.1655 10.6965C13.0572 10.5882 12.9272 10.5015 12.7755 10.4365C12.6238 10.3715 12.4657 10.339 12.301 10.339C12.1277 10.339 11.9673 10.3715 11.82 10.4365C11.6727 10.5015 11.5448 10.5882 11.4365 10.6965C11.3282 10.8048 11.2415 10.9348 11.1765 11.0865C11.1115 11.2382 11.079 11.3963 11.079 11.561C11.079 11.7343 11.1115 11.8947 11.1765 12.042C11.2415 12.1893 11.3282 12.3172 11.4365 12.4255C11.5448 12.5338 11.6727 12.6205 11.82 12.6855ZM17.943 18.776C18.2637 18.776 18.5627 18.7153 18.84 18.594C19.1173 18.4727 19.36 18.308 19.568 18.1C19.776 17.892 19.9407 17.6493 20.062 17.372C20.1833 17.0947 20.244 16.7957 20.244 16.475C20.244 16.1543 20.1833 15.8553 20.062 15.578C19.9407 15.3007 19.776 15.058 19.568 14.85C19.36 14.642 19.1173 14.4773 18.84 14.356C18.5627 14.2347 18.2637 14.174 17.943 14.174C17.6223 14.174 17.3233 14.2347 17.046 14.356C16.7687 14.4773 16.526 14.642 16.318 14.85C16.11 15.058 15.9453 15.3007 15.824 15.578C15.7027 15.8553 15.642 16.1543 15.642 16.475C15.642 16.7957 15.7027 17.0947 15.824 17.372C15.9453 17.6493 16.11 17.892 16.318 18.1C16.526 18.308 16.7687 18.4727 17.046 18.594C17.3233 18.7153 17.6223 18.776 17.943 18.776ZM17.462 17.5995C17.6093 17.6645 17.7697 17.697 17.943 17.697C18.1077 17.697 18.2658 17.6645 18.4175 17.5995C18.5692 17.5345 18.6992 17.4478 18.8075 17.3395C18.9158 17.2312 19.0025 17.1033 19.0675 16.956C19.1325 16.8087 19.165 16.6483 19.165 16.475C19.165 16.3103 19.1325 16.1522 19.0675 16.0005C19.0025 15.8488 18.9158 15.7188 18.8075 15.6105C18.6992 15.5022 18.5692 15.4155 18.4175 15.3505C18.2658 15.2855 18.1077 15.253 17.943 15.253C17.7697 15.253 17.6093 15.2855 17.462 15.3505C17.3147 15.4155 17.1868 15.5022 17.0785 15.6105C16.9702 15.7188 16.8835 15.8488 16.8185 16.0005C16.7535 16.1522 16.721 16.3103 16.721 16.475C16.721 16.6483 16.7535 16.8087 16.8185 16.956C16.8835 17.1033 16.9702 17.2312 17.0785 17.3395C17.1868 17.4478 17.3147 17.5345 17.462 17.5995Z" fill="#222222" fill-opacity="0.55"/>
</svg>
