<svg width="36" height="34" viewBox="0 0 36 34" fill="none" xmlns="http://www.w3.org/2000/svg">
<path d="M1 0H33C34.6569 0 36 1.34315 36 3V31C36 32.6569 34.6569 34 33 34H1V0Z" fill="#222222" fill-opacity="0.03"/>
<path fill-rule="evenodd" clip-rule="evenodd" d="M0.999756 0.000409164L0.986024 34L-0.000244141 33.9996L0.0134874 0L0.999756 0.000409164Z" fill="#222222" fill-opacity="0.18"/>
<path fill-rule="evenodd" clip-rule="evenodd" d="M13 13.3434H15V14.7966H13V13.3434ZM13 16.2498H15V17.703H13V16.2498ZM15 19.1561H13V20.6093H15V19.1561ZM17 19.1561H19V20.6093H17V19.1561ZM19 16.2498H17V17.703H19V16.2498ZM17 13.3434H19V14.7966H17V13.3434ZM23 19.1561H21V20.6093H23V19.1561ZM21 16.2498H23V17.703H21V16.2498ZM23 13.3434H21V14.7966H23V13.3434Z" fill="#222222" fill-opacity="0.55"/>
<path fill-rule="evenodd" clip-rule="evenodd" d="M14.5 8.49951C14.5 8.22337 14.2761 7.99951 14 7.99951C13.7239 7.99951 13.5 8.22337 13.5 8.49951V9.46832H12C10.8954 9.46832 10 10.3638 10 11.4683V22C10 23.1046 10.8954 24 12 24H24C25.1046 24 26 23.1046 26 22V11.4683C26 10.3637 25.1046 9.46832 24 9.46832H22.5V8.49951C22.5 8.22337 22.2761 7.99951 22 7.99951C21.7239 7.99951 21.5 8.22337 21.5 8.49951V9.46832H18.5V8.49951C18.5 8.22337 18.2761 7.99951 18 7.99951C17.7239 7.99951 17.5 8.22337 17.5 8.49951V9.46832H14.5V8.49951ZM21.5 10.4683H18.5V11.4059C18.5 11.682 18.2761 11.9059 18 11.9059C17.7239 11.9059 17.5 11.682 17.5 11.4059V10.4683H14.5V11.4059C14.5 11.682 14.2761 11.9059 14 11.9059C13.7239 11.9059 13.5 11.682 13.5 11.4059V10.4683H12C11.4477 10.4683 11 10.916 11 11.4683V22C11 22.5523 11.4477 23 12 23H24C24.5523 23 25 22.5523 25 22V11.4683C25 10.916 24.5523 10.4683 24 10.4683H22.5V11.4059C22.5 11.682 22.2761 11.9059 22 11.9059C21.7239 11.9059 21.5 11.682 21.5 11.4059V10.4683Z" fill="#222222" fill-opacity="0.55"/>
</svg>
