<svg width="36" height="35" viewBox="0 0 36 35" fill="none" xmlns="http://www.w3.org/2000/svg">
<path d="M1 1H33C34.6569 1 36 2.34315 36 4V32C36 33.6569 34.6569 35 33 35H1V1Z" fill="#222222" fill-opacity="0.03"/>
<path d="M0.513464 1.48649L0.499951 34.5" stroke="#222222" stroke-opacity="0.18" stroke-linecap="square"/>
<path fill-rule="evenodd" clip-rule="evenodd" d="M13 14.3434H15V15.7966H13V14.3434ZM13 17.2498H15V18.703H13V17.2498ZM15 20.1561H13V21.6093H15V20.1561ZM17 20.1561H19V21.6093H17V20.1561ZM19 17.2498H17V18.703H19V17.2498ZM17 14.3434H19V15.7966H17V14.3434ZM23 20.1561H21V21.6093H23V20.1561ZM21 17.2498H23V18.703H21V17.2498ZM23 14.3434H21V15.7966H23V14.3434Z" fill="#222222" fill-opacity="0.55"/>
<path fill-rule="evenodd" clip-rule="evenodd" d="M14.5 9.49951C14.5 9.22337 14.2761 8.99951 14 8.99951C13.7239 8.99951 13.5 9.22337 13.5 9.49951V10.4683H12C10.8954 10.4683 10 11.3638 10 12.4683V23C10 24.1046 10.8954 25 12 25H24C25.1046 25 26 24.1046 26 23V12.4683C26 11.3637 25.1046 10.4683 24 10.4683H22.5V9.49951C22.5 9.22337 22.2761 8.99951 22 8.99951C21.7239 8.99951 21.5 9.22337 21.5 9.49951V10.4683H18.5V9.49951C18.5 9.22337 18.2761 8.99951 18 8.99951C17.7239 8.99951 17.5 9.22337 17.5 9.49951V10.4683H14.5V9.49951ZM21.5 11.4683H18.5V12.4059C18.5 12.682 18.2761 12.9059 18 12.9059C17.7239 12.9059 17.5 12.682 17.5 12.4059V11.4683H14.5V12.4059C14.5 12.682 14.2761 12.9059 14 12.9059C13.7239 12.9059 13.5 12.682 13.5 12.4059V11.4683H12C11.4477 11.4683 11 11.916 11 12.4683V23C11 23.5523 11.4477 24 12 24H24C24.5523 24 25 23.5523 25 23V12.4683C25 11.916 24.5523 11.4683 24 11.4683H22.5V12.4059C22.5 12.682 22.2761 12.9059 22 12.9059C21.7239 12.9059 21.5 12.682 21.5 12.4059V11.4683Z" fill="#222222" fill-opacity="0.55"/>
</svg>
