<svg width="36" height="34" viewBox="0 0 36 34" fill="none" xmlns="http://www.w3.org/2000/svg">
<path d="M0 3C0 1.34315 1.34315 0 3 0H35V34H3C1.34315 34 0 32.6569 0 31V3Z" fill="#222222" fill-opacity="0.03"/>
<path d="M17.0352 22.8135V21.3779C16.5111 21.3688 16.0098 21.3232 15.5312 21.2412C15.0573 21.1592 14.6699 21.0521 14.3691 20.9199V19.8125C14.6836 19.9583 15.0869 20.0859 15.5791 20.1953C16.0713 20.3047 16.5566 20.3639 17.0352 20.373V17.3652C16.4336 17.1966 15.9346 17.0052 15.5381 16.791C15.1462 16.5723 14.8522 16.3057 14.6562 15.9912C14.4603 15.6768 14.3623 15.2962 14.3623 14.8496C14.3623 14.3848 14.4717 13.9883 14.6904 13.6602C14.9137 13.3275 15.2259 13.0677 15.627 12.8809C16.028 12.694 16.4974 12.5869 17.0352 12.5596V11.377H17.8691V12.5459C18.3568 12.5596 18.8011 12.6143 19.2021 12.71C19.6032 12.8011 19.9746 12.9196 20.3164 13.0654L19.9609 14.0156C19.651 13.8926 19.3161 13.7878 18.9561 13.7012C18.596 13.6146 18.2337 13.5553 17.8691 13.5234V16.5107C18.4798 16.6885 18.9902 16.8776 19.4004 17.0781C19.8151 17.2786 20.1273 17.527 20.3369 17.8232C20.5465 18.1195 20.6514 18.5023 20.6514 18.9717C20.6514 19.637 20.4076 20.1748 19.9199 20.585C19.4323 20.9906 18.7487 21.2367 17.8691 21.3232V22.8135H17.0352ZM17.8691 20.3115C18.4297 20.2568 18.8467 20.1224 19.1201 19.9082C19.3981 19.6895 19.5371 19.4023 19.5371 19.0469C19.5371 18.7917 19.4824 18.582 19.373 18.418C19.2682 18.2539 19.0951 18.1126 18.8535 17.9941C18.612 17.8711 18.2839 17.7549 17.8691 17.6455V20.3115ZM17.0352 16.2236V13.5508C16.6934 13.5736 16.4062 13.6374 16.1738 13.7422C15.9414 13.847 15.766 13.9837 15.6475 14.1523C15.5335 14.321 15.4766 14.5215 15.4766 14.7539C15.4766 15.0228 15.5267 15.2484 15.627 15.4307C15.7318 15.6084 15.8981 15.7611 16.126 15.8887C16.3584 16.0117 16.6615 16.1234 17.0352 16.2236Z" fill="#222222" fill-opacity="0.55"/>
<path fill-rule="evenodd" clip-rule="evenodd" d="M36 0.000409164L35.9863 34L35 33.9996L35.0137 0L36 0.000409164Z" fill="#222222" fill-opacity="0.18"/>
</svg>
