<svg width="37" height="35" viewBox="0 0 37 35" fill="none" xmlns="http://www.w3.org/2000/svg">
<path d="M0 4C0 2.34315 1.34315 1 3 1H35V35H3C1.34315 35 0 33.6569 0 32V4Z" fill="#222222" fill-opacity="0.03"/>
<path d="M17.0352 23.8135V22.3779C16.5111 22.3688 16.0098 22.3232 15.5312 22.2412C15.0573 22.1592 14.6699 22.0521 14.3691 21.9199V20.8125C14.6836 20.9583 15.0869 21.0859 15.5791 21.1953C16.0713 21.3047 16.5566 21.3639 17.0352 21.373V18.3652C16.4336 18.1966 15.9346 18.0052 15.5381 17.791C15.1462 17.5723 14.8522 17.3057 14.6562 16.9912C14.4603 16.6768 14.3623 16.2962 14.3623 15.8496C14.3623 15.3848 14.4717 14.9883 14.6904 14.6602C14.9137 14.3275 15.2259 14.0677 15.627 13.8809C16.028 13.694 16.4974 13.5869 17.0352 13.5596V12.377H17.8691V13.5459C18.3568 13.5596 18.8011 13.6143 19.2021 13.71C19.6032 13.8011 19.9746 13.9196 20.3164 14.0654L19.9609 15.0156C19.651 14.8926 19.3161 14.7878 18.9561 14.7012C18.596 14.6146 18.2337 14.5553 17.8691 14.5234V17.5107C18.4798 17.6885 18.9902 17.8776 19.4004 18.0781C19.8151 18.2786 20.1273 18.527 20.3369 18.8232C20.5465 19.1195 20.6514 19.5023 20.6514 19.9717C20.6514 20.637 20.4076 21.1748 19.9199 21.585C19.4323 21.9906 18.7487 22.2367 17.8691 22.3232V23.8135H17.0352ZM17.8691 21.3115C18.4297 21.2568 18.8467 21.1224 19.1201 20.9082C19.3981 20.6895 19.5371 20.4023 19.5371 20.0469C19.5371 19.7917 19.4824 19.582 19.373 19.418C19.2682 19.2539 19.0951 19.1126 18.8535 18.9941C18.612 18.8711 18.2839 18.7549 17.8691 18.6455V21.3115ZM17.0352 17.2236V14.5508C16.6934 14.5736 16.4062 14.6374 16.1738 14.7422C15.9414 14.847 15.766 14.9837 15.6475 15.1523C15.5335 15.321 15.4766 15.5215 15.4766 15.7539C15.4766 16.0228 15.5267 16.2484 15.627 16.4307C15.7318 16.6084 15.8981 16.7611 16.126 16.8887C16.3584 17.0117 16.6615 17.1234 17.0352 17.2236Z" fill="#222222" fill-opacity="0.55"/>
<path d="M35.5135 1.48649L35.5 34.5" stroke="#222222" stroke-opacity="0.18" stroke-linecap="square"/>
</svg>
