<svg width="36" height="35" viewBox="0 0 36 35" fill="none" xmlns="http://www.w3.org/2000/svg">
<path d="M1 1H33C34.6569 1 36 2.34315 36 4V32C36 33.6569 34.6569 35 33 35H1V1Z" fill="#222222" fill-opacity="0.03"/>
<path fill-rule="evenodd" clip-rule="evenodd" d="M16.289 23.416L21.918 13.809L21.047 13.38L15.405 22.987L16.289 23.416ZM15.834 18.242C16.1546 18.242 16.4536 18.1813 16.731 18.06C17.0083 17.9387 17.251 17.774 17.459 17.566C17.667 17.358 17.8316 17.1153 17.953 16.838C18.0743 16.5607 18.135 16.2617 18.135 15.941C18.135 15.6203 18.0743 15.3213 17.953 15.044C17.8316 14.7667 17.667 14.524 17.459 14.316C17.251 14.108 17.0083 13.9433 16.731 13.822C16.4536 13.7007 16.1546 13.64 15.834 13.64C15.5133 13.64 15.2143 13.7007 14.937 13.822C14.6596 13.9433 14.417 14.108 14.209 14.316C14.001 14.524 13.8363 14.7667 13.715 15.044C13.5936 15.3213 13.533 15.6203 13.533 15.941C13.533 16.2617 13.5936 16.5607 13.715 16.838C13.8363 17.1153 14.001 17.358 14.209 17.566C14.417 17.774 14.6596 17.9387 14.937 18.06C15.2143 18.1813 15.5133 18.242 15.834 18.242ZM15.353 17.0655C15.5003 17.1305 15.6606 17.163 15.834 17.163C15.9986 17.163 16.1568 17.1305 16.3085 17.0655C16.4601 17.0005 16.5901 16.9138 16.6985 16.8055C16.8068 16.6972 16.8935 16.5693 16.9585 16.422C17.0235 16.2747 17.056 16.1143 17.056 15.941C17.056 15.7763 17.0235 15.6182 16.9585 15.4665C16.8935 15.3148 16.8068 15.1848 16.6985 15.0765C16.5901 14.9682 16.4601 14.8815 16.3085 14.8165C16.1568 14.7515 15.9986 14.719 15.834 14.719C15.6606 14.719 15.5003 14.7515 15.353 14.8165C15.2056 14.8815 15.0778 14.9682 14.9695 15.0765C14.8611 15.1848 14.7745 15.3148 14.7095 15.4665C14.6445 15.6182 14.612 15.7763 14.612 15.941C14.612 16.1143 14.6445 16.2747 14.7095 16.422C14.7745 16.5693 14.8611 16.6972 14.9695 16.8055C15.0778 16.9138 15.2056 17.0005 15.353 17.0655ZM21.476 23.156C21.7966 23.156 22.0956 23.0953 22.373 22.974C22.6503 22.8527 22.893 22.688 23.101 22.48C23.309 22.272 23.4736 22.0293 23.595 21.752C23.7163 21.4747 23.777 21.1757 23.777 20.855C23.777 20.5343 23.7163 20.2353 23.595 19.958C23.4736 19.6807 23.309 19.438 23.101 19.23C22.893 19.022 22.6503 18.8573 22.373 18.736C22.0956 18.6147 21.7966 18.554 21.476 18.554C21.1553 18.554 20.8563 18.6147 20.579 18.736C20.3016 18.8573 20.059 19.022 19.851 19.23C19.643 19.438 19.4783 19.6807 19.357 19.958C19.2356 20.2353 19.175 20.5343 19.175 20.855C19.175 21.1757 19.2356 21.4747 19.357 21.752C19.4783 22.0293 19.643 22.272 19.851 22.48C20.059 22.688 20.3016 22.8527 20.579 22.974C20.8563 23.0953 21.1553 23.156 21.476 23.156ZM20.995 21.9795C21.1423 22.0445 21.3026 22.077 21.476 22.077C21.6406 22.077 21.7988 22.0445 21.9505 21.9795C22.1021 21.9145 22.2321 21.8278 22.3405 21.7195C22.4488 21.6112 22.5355 21.4833 22.6005 21.336C22.6655 21.1887 22.698 21.0283 22.698 20.855C22.698 20.6903 22.6655 20.5322 22.6005 20.3805C22.5355 20.2288 22.4488 20.0988 22.3405 19.9905C22.2321 19.8822 22.1021 19.7955 21.9505 19.7305C21.7988 19.6655 21.6406 19.633 21.476 19.633C21.3026 19.633 21.1423 19.6655 20.995 19.7305C20.8476 19.7955 20.7198 19.8822 20.6115 19.9905C20.5031 20.0988 20.4165 20.2288 20.3515 20.3805C20.2865 20.5322 20.254 20.6903 20.254 20.855C20.254 21.0283 20.2865 21.1887 20.3515 21.336C20.4165 21.4833 20.5031 21.6112 20.6115 21.7195C20.7198 21.8278 20.8476 21.9145 20.995 21.9795Z" fill="#222222" fill-opacity="0.55"/>
<path d="M0.513464 1.48649L0.499951 34.5" stroke="#222222" stroke-opacity="0.18" stroke-linecap="square"/>
</svg>
