<svg width="36" height="34" viewBox="0 0 36 34" fill="none" xmlns="http://www.w3.org/2000/svg">
<path d="M1 0H33C34.6569 0 36 1.34315 36 3V31C36 32.6569 34.6569 34 33 34H1V0Z" fill="#222222" fill-opacity="0.03"/>
<path fill-rule="evenodd" clip-rule="evenodd" d="M16.289 22.416L21.918 12.809L21.047 12.38L15.405 21.987L16.289 22.416ZM15.834 17.242C16.1546 17.242 16.4536 17.1813 16.731 17.06C17.0083 16.9387 17.251 16.774 17.459 16.566C17.667 16.358 17.8316 16.1153 17.953 15.838C18.0743 15.5607 18.135 15.2617 18.135 14.941C18.135 14.6203 18.0743 14.3213 17.953 14.044C17.8316 13.7667 17.667 13.524 17.459 13.316C17.251 13.108 17.0083 12.9433 16.731 12.822C16.4536 12.7007 16.1546 12.64 15.834 12.64C15.5133 12.64 15.2143 12.7007 14.937 12.822C14.6596 12.9433 14.417 13.108 14.209 13.316C14.001 13.524 13.8363 13.7667 13.715 14.044C13.5936 14.3213 13.533 14.6203 13.533 14.941C13.533 15.2617 13.5936 15.5607 13.715 15.838C13.8363 16.1153 14.001 16.358 14.209 16.566C14.417 16.774 14.6596 16.9387 14.937 17.06C15.2143 17.1813 15.5133 17.242 15.834 17.242ZM15.353 16.0655C15.5003 16.1305 15.6606 16.163 15.834 16.163C15.9986 16.163 16.1568 16.1305 16.3085 16.0655C16.4601 16.0005 16.5901 15.9138 16.6985 15.8055C16.8068 15.6972 16.8935 15.5693 16.9585 15.422C17.0235 15.2747 17.056 15.1143 17.056 14.941C17.056 14.7763 17.0235 14.6182 16.9585 14.4665C16.8935 14.3148 16.8068 14.1848 16.6985 14.0765C16.5901 13.9682 16.4601 13.8815 16.3085 13.8165C16.1568 13.7515 15.9986 13.719 15.834 13.719C15.6606 13.719 15.5003 13.7515 15.353 13.8165C15.2056 13.8815 15.0778 13.9682 14.9695 14.0765C14.8611 14.1848 14.7745 14.3148 14.7095 14.4665C14.6445 14.6182 14.612 14.7763 14.612 14.941C14.612 15.1143 14.6445 15.2747 14.7095 15.422C14.7745 15.5693 14.8611 15.6972 14.9695 15.8055C15.0778 15.9138 15.2056 16.0005 15.353 16.0655ZM21.476 22.156C21.7966 22.156 22.0956 22.0953 22.373 21.974C22.6503 21.8527 22.893 21.688 23.101 21.48C23.309 21.272 23.4736 21.0293 23.595 20.752C23.7163 20.4747 23.777 20.1757 23.777 19.855C23.777 19.5343 23.7163 19.2353 23.595 18.958C23.4736 18.6807 23.309 18.438 23.101 18.23C22.893 18.022 22.6503 17.8573 22.373 17.736C22.0956 17.6147 21.7966 17.554 21.476 17.554C21.1553 17.554 20.8563 17.6147 20.579 17.736C20.3016 17.8573 20.059 18.022 19.851 18.23C19.643 18.438 19.4783 18.6807 19.357 18.958C19.2356 19.2353 19.175 19.5343 19.175 19.855C19.175 20.1757 19.2356 20.4747 19.357 20.752C19.4783 21.0293 19.643 21.272 19.851 21.48C20.059 21.688 20.3016 21.8527 20.579 21.974C20.8563 22.0953 21.1553 22.156 21.476 22.156ZM20.995 20.9795C21.1423 21.0445 21.3026 21.077 21.476 21.077C21.6406 21.077 21.7988 21.0445 21.9505 20.9795C22.1021 20.9145 22.2321 20.8278 22.3405 20.7195C22.4488 20.6112 22.5355 20.4833 22.6005 20.336C22.6655 20.1887 22.698 20.0283 22.698 19.855C22.698 19.6903 22.6655 19.5322 22.6005 19.3805C22.5355 19.2288 22.4488 19.0988 22.3405 18.9905C22.2321 18.8822 22.1021 18.7955 21.9505 18.7305C21.7988 18.6655 21.6406 18.633 21.476 18.633C21.3026 18.633 21.1423 18.6655 20.995 18.7305C20.8476 18.7955 20.7198 18.8822 20.6115 18.9905C20.5031 19.0988 20.4165 19.2288 20.3515 19.3805C20.2865 19.5322 20.254 19.6903 20.254 19.855C20.254 20.0283 20.2865 20.1887 20.3515 20.336C20.4165 20.4833 20.5031 20.6112 20.6115 20.7195C20.7198 20.8278 20.8476 20.9145 20.995 20.9795Z" fill="#222222" fill-opacity="0.55"/>
<path fill-rule="evenodd" clip-rule="evenodd" d="M0.999756 0.000409164L0.986024 34L-0.000244141 33.9996L0.0134874 0L0.999756 0.000409164Z" fill="#222222" fill-opacity="0.18"/>
</svg>
