<svg width="18" height="18" viewBox="0 0 18 18" fill="none" xmlns="http://www.w3.org/2000/svg">
<g clip-path="url(#clip0_2053_6983)">
<path d="M14.9062 0.84375H3.09375C1.85111 0.84375 0.84375 1.85111 0.84375 3.09375V14.9062C0.84375 16.1489 1.85111 17.1562 3.09375 17.1562H14.9062C16.1489 17.1562 17.1562 16.1489 17.1562 14.9062V3.09375C17.1562 1.85111 16.1489 0.84375 14.9062 0.84375Z" fill="white" stroke="#222222" stroke-opacity="0.55" stroke-width="1.5"/>
<path d="M12.9375 7.875H5.0625C4.75184 7.875 4.5 8.12684 4.5 8.4375V9.5625C4.5 9.87316 4.75184 10.125 5.0625 10.125H12.9375C13.2482 10.125 13.5 9.87316 13.5 9.5625V8.4375C13.5 8.12684 13.2482 7.875 12.9375 7.875Z" fill="#222222" fill-opacity="0.55"/>
</g>
<defs>
<clipPath id="clip0_2053_6983">
<rect width="18" height="18" fill="white"/>
</clipPath>
</defs>
</svg>
