<?xml version="1.0" encoding="UTF-8"?>
<svg width="1200px" height="25px" viewBox="0 0 1200 25" version="1.1" xmlns="http://www.w3.org/2000/svg" xmlns:xlink="http://www.w3.org/1999/xlink">
    <title>popover-tc</title>
    <g id="Page-1" stroke="none" stroke-width="1" fill="none" fill-rule="evenodd">
        <path d="M601.856715,2.86988266 L607.252511,7.92033653 C607.993644,8.61403584 608.970806,9 609.98594,9 L1196,9 L1196,9 C1198.20914,9 1200,10.790861 1200,13 L1200,21.0034128 C1200,23.2125518 1198.20914,25.0034128 1196,25.0034128 L4,25.0034128 C1.790861,25.0034128 0,23.2125518 0,21.0034128 L0,13 C0,10.790861 1.790861,9 4,9 L590.913972,9 C591.918989,9 592.887178,8.62167348 593.625935,7.94028138 L599.134019,2.85991023 C599.904117,2.14961183 601.091841,2.15396211 601.856715,2.86988266 Z" id="Path" fill="#000000" opacity="0.0799999982"></path>
        <path d="M601.187736,3.65152512 L606.441651,8.62880554 C607.370377,9.50863111 608.601019,9.99900121 609.880325,9.99900339 L1196,10 L1196,10 C1197.65685,10 1199,11.3431458 1199,13 L1199,21.0034128 C1199,22.660267 1197.65685,24.0034128 1196,24.0034128 L4,24.0034128 C2.34314575,24.0034128 1,22.660267 1,21.0034128 L1,13 C1,11.3431458 2.34314575,10 4,10 L591.119675,9.99900338 C592.398981,9.99900121 593.629623,9.5086311 594.558349,8.62880553 L599.812264,3.65152512 C600.197958,3.28613902 600.802042,3.28613902 601.187736,3.65152512 Z" id="Path" fill="#FFFFFF"></path>
    </g>
</svg>