<?xml version="1.0" encoding="UTF-8"?>
<svg width="1200px" height="25px" viewBox="0 0 1200 25" version="1.1" xmlns="http://www.w3.org/2000/svg" xmlns:xlink="http://www.w3.org/1999/xlink">
    <title>popover-bc</title>
    <g id="Page-1" stroke="none" stroke-width="1" fill="none" fill-rule="evenodd">
        <path d="M601.856715,1.26988266 L607.252511,6.32033653 C607.993644,7.01403584 608.970806,7.4 609.98594,7.4 L1196,7.4 L1196,7.4 C1198.20914,7.4 1200,9.190861 1200,11.4 L1200,19.4034128 C1200,21.6125518 1198.20914,23.4034128 1196,23.4034128 L4,23.4034128 C1.790861,23.4034128 0,21.6125518 0,19.4034128 L0,11.4 C0,9.190861 1.790861,7.4 4,7.4 L590.913972,7.4 C591.918989,7.4 592.887178,7.02167348 593.625935,6.34028138 L599.134019,1.25991023 C599.904117,0.549611832 601.091841,0.553962112 601.856715,1.26988266 Z" id="Path" fill="#000000" opacity="0.0799999982" transform="translate(600.000000, 11.701706) scale(1, -1) translate(-600.000000, -11.701706) "></path>
        <path d="M601.187736,1.65152512 L606.441651,6.62880554 C607.370377,7.50863111 608.601019,7.99900121 609.880325,7.99900339 L1196,8 L1196,8 C1197.65685,8 1199,9.34314575 1199,11 L1199,19.0034128 C1199,20.660267 1197.65685,22.0034128 1196,22.0034128 L4,22.0034128 C2.34314575,22.0034128 1,20.660267 1,19.0034128 L1,11 C1,9.34314575 2.34314575,8 4,8 L591.119675,7.99900338 C592.398981,7.99900121 593.629623,7.5086311 594.558349,6.62880553 L599.812264,1.65152512 C600.197958,1.28613902 600.802042,1.28613902 601.187736,1.65152512 Z" id="Path" fill="#FFFFFF" transform="translate(600.000000, 11.501706) scale(1, -1) translate(-600.000000, -11.501706) "></path>
    </g>
</svg>