<?xml version="1.0" encoding="UTF-8"?>
<svg width="1200px" height="25px" viewBox="0 0 1200 25" version="1.1" xmlns="http://www.w3.org/2000/svg" xmlns:xlink="http://www.w3.org/1999/xlink">
    <title>popover-tr</title>
    <g id="Page-1" stroke="none" stroke-width="1" fill="none" fill-rule="evenodd">
        <path d="M1168.85672,2.86988266 L1174.25251,7.92033653 C1174.99364,8.61403584 1175.97081,9 1176.98594,9 L1196,9 L1196,9 C1198.20914,9 1200,10.790861 1200,13 L1200,21.0034128 C1200,23.2125518 1198.20914,25.0034128 1196,25.0034128 L4,25.0034128 C1.790861,25.0034128 0,23.2125518 0,21.0034128 L0,13 C0,10.790861 1.790861,9 4,9 L1157.91397,9 C1158.91899,9 1159.88718,8.62167348 1160.62594,7.94028138 L1166.13402,2.85991023 C1166.90412,2.14961183 1168.09184,2.15396211 1168.85672,2.86988266 Z" id="Path-Copy-6" fill="#000000" opacity="0.0799999982"></path>
        <path d="M1168.18774,3.65152512 L1173.44175,8.62889652 C1174.37042,9.50866782 1175.60097,9.99903377 1176.88019,9.99909436 L1196,10 L1196,10 C1197.65685,10 1199,11.3431458 1199,13 L1199,21.0034128 C1199,22.660267 1197.65685,24.0034128 1196,24.0034128 L4,24.0034128 C2.34314575,24.0034128 1,22.660267 1,21.0034128 L1,13 C1,11.3431458 2.34314575,10 4,10 L1158.11967,9.99900172 C1159.39898,9.99900062 1160.62962,9.50863043 1161.55835,8.62880387 L1166.81226,3.65152512 C1167.19796,3.28613902 1167.80204,3.28613902 1168.18774,3.65152512 Z" id="Path-Copy-4" fill="#FFFFFF"></path>
    </g>
</svg>