<?xml version="1.0" encoding="UTF-8"?>
<svg width="1200px" height="25px" viewBox="0 0 1200 25" version="1.1" xmlns="http://www.w3.org/2000/svg" xmlns:xlink="http://www.w3.org/1999/xlink">
    <title>popover-br</title>
    <g id="Page-1" stroke="none" stroke-width="1" fill="none" fill-rule="evenodd">
        <path d="M1196,1.13686838e-13 C1198.20914,1.13686838e-13 1200,1.790861 1200,4 L1200,12.0034128 C1200,14.2125518 1198.20914,16.0034128 1196,16.0034128 L1176.56459,16.0022941 C1175.70323,16.0935153 1174.89044,16.4626177 1174.25251,17.0597143 L1174.25251,17.0597143 L1168.85672,22.1101682 C1168.09184,22.8260887 1166.90412,22.830439 1166.13402,22.1201406 L1166.13402,22.1201406 L1160.62594,17.0397695 C1159.9924,16.4554248 1159.19012,16.093965 1158.34059,16.0028564 L4,16.0034128 C1.790861,16.0034128 0,14.2125518 0,12.0034128 L0,4 C0,1.790861 1.790861,1.13686838e-13 4,1.13686838e-13 L1196,1.13686838e-13 Z" id="Combined-Shape" fill="#000000" opacity="0.0799999982"></path>
        <path d="M1196,1 C1197.65685,1 1199,2.34314575 1199,4 L1199,12.0034128 C1199,13.660267 1197.65685,15.0034128 1196,15.0034128 L1176.878,15.003 C1175.68624,15.0043687 1174.53471,15.4315357 1173.63145,16.2037701 L1173.44176,16.3745006 L1168.18774,21.3518877 C1167.80204,21.7172738 1167.19796,21.7172738 1166.81226,21.3518877 L1166.81226,21.3518877 L1161.55812,16.374392 C1160.62953,15.4946948 1159.39911,15.0043345 1158.11999,15.0041942 L1158.11999,15.0041942 L1158.12,15.003 L4,15.0034128 C2.34314575,15.0034128 1,13.660267 1,12.0034128 L1,4 C1,2.34314575 2.34314575,1 4,1 L1196,1 Z" id="Combined-Shape" fill="#FFFFFF"></path>
    </g>
</svg>